<svg xmlns="http://www.w3.org/2000/svg" viewBox="0 0 1500.9 701"><title>logo_1</title><g id="Layer_2" data-name="Layer 2"><g id="Layer_1-2" data-name="Layer 1"><path d="M345.41,0H202.32L0,700.68H103.62l46-170.72H398.15l46,170.72H547.74ZM174.82,436.19,269.43,84.86h8.88l94.61,351.33Z"/><path d="M994.6,423.4H909.19q0-47.16-14-67.91t-45.33-20.73q-54.9,0-82,47t-27,133.6V625.1H846.57v75.64H558.66V625.1h96V345.32H574.93V269.68H724.57l14.55,110.63H749q7.32-118.76,118.73-118.75,66.69,0,96.8,38.23T994.6,423.4Z"/><path d="M1403.67,700.74H1297.13l-99.65-170.27h0a270.5,270.5,0,0,1-62.19,6.8h-43.91V700.74h-86.2v-610h86.2V460h23.58q53.68,0,88.24-18.49t54.31-60.4q19.73-41.87,29.06-111.43H1376q-17.08,134.63-76.64,201.09a198.86,198.86,0,0,1-22.58,21.52Z"/><rect x="1414.68" y="614.78" width="86.21" height="86.21"/></g></g></svg>